<svg width="102" height="93" viewBox="0 0 102 93" fill="none" xmlns="http://www.w3.org/2000/svg">
<path d="M44.8547 35.2598C44.8547 31.9461 47.541 29.2598 50.8547 29.2598H95.4389C98.7526 29.2598 101.439 31.9461 101.439 35.2598V63.2598C101.439 66.5735 98.7526 69.2598 95.4389 69.2598H95.276C91.9623 69.2598 89.276 71.9461 89.276 75.2598V79.5565C89.276 81.3297 87.1394 82.2259 85.8744 80.9833L75.6907 70.9795C74.5687 69.8773 73.0588 69.2598 71.4861 69.2598H50.8547C47.541 69.2598 44.8547 66.5735 44.8547 63.2598V35.2598Z" fill="url(#paint0_linear_3009_3335)"/>
<g filter="url(#filter0_d_3009_3335)">
<path d="M20 20.1948C20 16.8811 22.6863 14.1948 26 14.1948H70.5842C73.8979 14.1948 76.5842 16.8811 76.5842 20.1948V48.1948C76.5842 51.5085 73.8979 54.1948 70.5842 54.1948H50.7167C49.1614 54.1948 47.6669 54.7988 46.5482 55.8794L35.8169 66.2454C34.5473 67.4717 32.4274 66.572 32.4274 64.8069V60.1948C32.4274 56.8811 29.7411 54.1948 26.4274 54.1948H26C22.6863 54.1948 20 51.5085 20 48.1948V20.1948Z" fill="url(#paint1_linear_3009_3335)"/>
</g>
<defs>
<linearGradient id="paint0_linear_3009_3335" x1="44.8547" y1="29.2598" x2="98.711" y2="69.9737" gradientUnits="userSpaceOnUse">
<stop stop-color="#1565C0"/>
<stop offset="1" stop-color="#0F4888"/>
</linearGradient>
<linearGradient id="paint1_linear_3009_3335" x1="20" y1="14.1948" x2="74.0403" y2="54.8561" gradientUnits="userSpaceOnUse">
<stop stop-color="#40C4FF"/>
<stop offset="1" stop-color="#03A9F4"/>
</linearGradient>
</defs>
</svg>
